# xmcd
#
# Track frame offsets: 
#        150
#        13232
#        30370
#        43032
#        56620
#        70525
#        87240
#        100092
#        114772
#        127682
#        146802
#        162730
#        178052
#        191597
#        205202
#        218532
#
# Disc length: 3131 seconds
#
# Revision: 0
# Processed by: cddbd v1.5.2PL0 Copyright (c) Steve Scherf et al.
# Submitted via: ExactAudioCopy v0.99pb3
#
DISCID=d60c3910
DTITLE=Various Artist - O Melhor Do Globo Rural
DYEAR=2007
DGENRE=Sertanejo
TTITLE0=Liguei Pra Dizer Que Te Amo  - João Mineiro and Mariano 
TTITLE1=Uma Lágrima Na Garganta  - Meirinho and Roberto 
TTITLE2=Ex-Mulher  - Teodoro and Sampaio 
TTITLE3=Bom Jesus De Pirapora  - Cacique and Pajé 
TTITLE4=No Rancho Fundo  - Renê and Ronaldo 
TTITLE5=Coisas Do Amor  - As Marcianas 
TTITLE6=Amor De Peão 
TTITLE7=Meus Desenganos  - João Mulato and Douradinho 
TTITLE8=Procissão De Gado  - Pena Branca and Xavantinho 
TTITLE9=O Menino Da Gaita  - Carlos Cesar and Cristiano 
TTITLE10=Esse Meu Coração Dem Juízo  - Solevante and Soleny 
TTITLE11=Caminhoneiro  - Valderi and Mizael 
TTITLE12=Vespeira  - Bob and Robson 
TTITLE13=Caprichos Do Destino  - Chico Rey and Paraná 
TTITLE14=Esta Noite Como Lembrança  - João Mineiro and Mariano 
TTITLE15=A Volta Do Boiadeiro  - Carlos Cesar and Cristiano 
EXTD=
EXTT0=
EXTT1=
EXTT2=
EXTT3=
EXTT4=
EXTT5=
EXTT6=
EXTT7=
EXTT8=
EXTT9=
EXTT10=
EXTT11=
EXTT12=
EXTT13=
EXTT14=
EXTT15=
PLAYORDER=
